<svg width="51" height="51" viewBox="0 0 51 51" fill="none" xmlns="http://www.w3.org/2000/svg">
<g id="Logo">
<g id="Logo_2">
<path d="M26.9889 29.7347V30.1032L13.203 38.0625V37.694L26.9889 29.7347ZM29.8723 24.74V7.01604C29.8723 6.34212 29.8723 5.85996 29.8443 5.49874C29.8166 5.14196 29.7636 4.93621 29.6752 4.79799C29.5227 4.55974 29.2909 4.42593 29.0084 4.41299C28.8444 4.4055 28.6397 4.46255 28.317 4.61695C27.9901 4.77329 27.5725 5.01388 26.9889 5.35082L13.203 13.3101C12.6194 13.6471 12.2018 13.8887 11.875 14.1097C11.5522 14.3281 11.3475 14.5074 11.1836 14.7041C10.901 15.0433 10.6692 15.4448 10.5168 15.8591C10.4283 16.0995 10.3754 16.3664 10.3477 16.7551C10.3197 17.1487 10.3192 17.6311 10.3192 18.305L10.3192 36.029C10.3192 36.7028 10.3197 37.1849 10.3477 37.5461C10.3754 37.9028 10.4283 38.1086 10.5168 38.2468C10.6692 38.4851 10.901 38.6189 11.1836 38.6318C11.3475 38.6393 11.5522 38.5823 11.875 38.4279C12.2018 38.2715 12.6194 38.0309 13.203 37.694V38.0625C12.119 38.6884 11.5431 39.0211 11.1154 39.0437L11.0318 39.0442C10.7367 39.0307 10.4879 38.9066 10.3084 38.6853L10.2355 38.5845C9.99989 38.2162 10 37.5483 10 36.2133L10 18.4893C10 17.1542 9.99986 16.4866 10.2355 15.8462C10.4176 15.3515 10.6944 14.872 11.0318 14.4671C11.4685 13.9427 12.0468 13.6091 13.203 12.9415L26.9889 4.98226L27.7545 4.54473C28.4252 4.1703 28.8322 3.98597 29.1598 4.00086C29.4971 4.01627 29.7739 4.17618 29.956 4.46056C30.1917 4.82885 30.1919 5.49647 30.1919 6.83151V24.5555L30.188 25.4418C30.177 26.2229 30.1328 26.7185 29.956 27.1989L29.8835 27.3837C29.704 27.8123 29.4549 28.2236 29.1598 28.578L29.0761 28.6741C28.7625 29.0195 28.3693 29.2906 27.7545 29.6572L26.9889 30.1032V29.7347C27.5725 29.3978 27.9901 29.1561 28.317 28.9351C28.6397 28.7168 28.8444 28.5374 29.0084 28.3407C29.2909 28.0015 29.5227 27.5999 29.6752 27.1857C29.7636 26.9454 29.8166 26.6783 29.8443 26.2897C29.8723 25.8962 29.8723 25.4138 29.8723 24.74Z" fill="url(#paint0_linear_81_469)"/>
<path d="M33.2909 36.7452V37.1137L19.5051 45.073V44.7044L33.2909 36.7452ZM36.1743 31.7505V12.6857C36.1743 12.0118 36.1742 11.5296 36.1462 11.1684C36.1185 10.8116 36.0656 10.6058 35.9771 10.4676C35.8247 10.2294 35.5929 10.0956 35.3103 10.0826C35.1464 10.0751 34.9417 10.1322 34.6189 10.2866C34.2921 10.4429 33.8745 10.6835 33.2909 11.0204L19.5051 18.9797C18.9214 19.3166 18.5039 19.5582 18.177 19.7793C17.8542 19.9976 17.6495 20.1769 17.4856 20.3737C17.2031 20.7129 16.9713 21.1144 16.8188 21.5287C16.7303 21.7691 16.6774 22.0359 16.6497 22.4247C16.6217 22.8183 16.6213 23.3007 16.6213 23.9746V43.0394C16.6213 43.7133 16.6217 44.1952 16.6497 44.5565C16.6774 44.9132 16.7304 45.119 16.8188 45.2572C16.9713 45.4955 17.2031 45.6293 17.4856 45.6422C17.6495 45.6497 17.8542 45.5927 18.177 45.4383C18.5039 45.2819 18.9214 45.0414 19.5051 44.7044V45.073C18.421 45.6988 17.8451 46.0315 17.4175 46.0541L17.3338 46.0546C17.0386 46.0411 16.79 45.9167 16.6105 45.6953L16.5376 45.5949C16.3019 45.2266 16.3021 44.5588 16.3021 43.2237L16.3021 24.1589C16.3021 22.8238 16.3019 22.1562 16.5376 21.5157C16.7196 21.0211 16.9965 20.5416 17.3338 20.1366C17.7706 19.6123 18.3489 19.2787 19.5051 18.6111L33.2909 10.6519L34.0565 10.2144C34.7271 9.83992 35.1342 9.6556 35.4617 9.67049C35.799 9.6859 36.0759 9.84581 36.2579 10.1302C36.4936 10.4985 36.4939 11.1661 36.4939 12.5012V31.566L36.49 32.4522C36.4789 33.2333 36.4347 33.729 36.2579 34.2094L36.1855 34.3936C36.0059 34.8224 35.757 35.234 35.4617 35.5884L35.378 35.6846C35.0645 36.03 34.6712 36.3011 34.0565 36.6677L33.2909 37.1137V36.7452C33.8745 36.4082 34.2921 36.1666 34.6189 35.9455C34.9417 35.7272 35.1464 35.5479 35.3103 35.3511C35.5928 35.0119 35.8247 34.6104 35.9771 34.1962C36.0656 33.9558 36.1185 33.6888 36.1462 33.3002C36.1742 32.9066 36.1743 32.4244 36.1743 31.7505Z" fill="url(#paint1_linear_81_469)"/>
<path d="M36.8536 34.7845V35.153L28.7944 39.806V39.4375L36.8536 34.7845ZM39.737 29.7898V18.3551C39.737 17.6812 39.737 17.1991 39.709 16.8378C39.6813 16.4811 39.6283 16.2753 39.5399 16.1371C39.3874 15.8988 39.1556 15.765 38.8731 15.7521C38.7092 15.7446 38.5044 15.8017 38.1817 15.956C37.8548 16.1124 37.4372 16.353 36.8536 16.6899L28.7944 21.3429C28.2108 21.6799 27.7932 21.9215 27.4663 22.1425C27.1435 22.3609 26.9389 22.5402 26.7749 22.7369C26.4924 23.0761 26.2606 23.4776 26.1081 23.8919C26.0197 24.1323 25.9667 24.3992 25.939 24.7879C25.911 25.1815 25.9106 25.6639 25.9106 26.3378V37.7725C25.9106 38.4463 25.911 38.9283 25.939 39.2895C25.9667 39.6463 26.0197 39.8521 26.1081 39.9903C26.2606 40.2285 26.4924 40.3623 26.7749 40.3753C26.9389 40.3828 27.1435 40.3257 27.4663 40.1713C27.7932 40.015 28.2108 39.7744 28.7944 39.4375V39.806C27.7103 40.4319 27.1345 40.7646 26.7068 40.7872L26.6231 40.7877C26.3279 40.7741 26.0793 40.6497 25.8998 40.4283L25.8269 40.328C25.5912 39.9597 25.5914 39.2918 25.5914 37.9568V26.5221C25.5914 25.1871 25.5912 24.5194 25.8269 23.879C26.0089 23.3843 26.2858 22.9048 26.6231 22.4999C27.0599 21.9756 27.6382 21.6419 28.7944 20.9744L36.8536 16.3214L37.6192 15.8838C38.2899 15.5094 38.6969 15.3251 39.0245 15.34C39.3618 15.3554 39.6386 15.5153 39.8207 15.7997C40.0564 16.1679 40.0566 16.8356 40.0566 18.1706V29.6053L40.0527 30.4915C40.0417 31.2726 39.9975 31.7683 39.8207 32.2486L39.7482 32.4329C39.5687 32.8617 39.3198 33.2733 39.0245 33.6277L38.9408 33.7239C38.6272 34.0693 38.234 34.3404 37.6192 34.707L36.8536 35.153V34.7845C37.4372 34.4475 37.8548 34.2059 38.1817 33.9848C38.5044 33.7665 38.7092 33.5872 38.8731 33.3904C39.1556 33.0513 39.3875 32.6497 39.5399 32.2354C39.6283 31.9951 39.6813 31.7281 39.709 31.3395C39.737 30.9459 39.737 30.4636 39.737 29.7898Z" fill="url(#paint2_linear_81_469)"/>
<path d="M26.9889 29.7347V30.1032M26.9889 29.7347L13.203 37.694M26.9889 29.7347C27.5725 29.3978 27.9901 29.1561 28.317 28.9351C28.6397 28.7168 28.8444 28.5374 29.0084 28.3407C29.2909 28.0015 29.5227 27.5999 29.6752 27.1857C29.7636 26.9454 29.8166 26.6783 29.8443 26.2897C29.8723 25.8962 29.8723 25.4138 29.8723 24.74V7.01604C29.8723 6.34212 29.8723 5.85996 29.8443 5.49874C29.8166 5.14196 29.7636 4.93621 29.6752 4.79799C29.5227 4.55974 29.2909 4.42593 29.0084 4.41299C28.8444 4.4055 28.6397 4.46255 28.317 4.61695C27.9901 4.77329 27.5725 5.01388 26.9889 5.35082L13.203 13.3101C12.6194 13.6471 12.2018 13.8887 11.875 14.1097C11.5522 14.3281 11.3475 14.5074 11.1836 14.7041C10.901 15.0433 10.6692 15.4448 10.5168 15.8591C10.4283 16.0995 10.3754 16.3664 10.3477 16.7551C10.3197 17.1487 10.3192 17.6311 10.3192 18.305L10.3192 36.029C10.3192 36.7028 10.3197 37.1849 10.3477 37.5461C10.3754 37.9028 10.4283 38.1086 10.5168 38.2468C10.6692 38.4851 10.901 38.6189 11.1836 38.6318C11.3475 38.6393 11.5522 38.5823 11.875 38.4279C12.2018 38.2715 12.6194 38.0309 13.203 37.694M26.9889 30.1032L13.203 38.0625M26.9889 30.1032L27.7545 29.6572C28.3693 29.2906 28.7625 29.0195 29.0761 28.6741L29.1598 28.578C29.4549 28.2236 29.704 27.8123 29.8835 27.3837L29.956 27.1989C30.1328 26.7185 30.177 26.2229 30.188 25.4418L30.1919 24.5555V6.83151C30.1919 5.49647 30.1917 4.82885 29.956 4.46056C29.7739 4.17618 29.4971 4.01627 29.1598 4.00086C28.8322 3.98597 28.4252 4.1703 27.7545 4.54473L26.9889 4.98226L13.203 12.9415C12.0468 13.6091 11.4685 13.9427 11.0318 14.4671C10.6944 14.872 10.4176 15.3515 10.2355 15.8462C9.99986 16.4866 10 17.1542 10 18.4893L10 36.2133C10 37.5483 9.99989 38.2162 10.2355 38.5845L10.3084 38.6853C10.4879 38.9066 10.7367 39.0307 11.0318 39.0442L11.1154 39.0437C11.5431 39.0211 12.119 38.6884 13.203 38.0625M13.203 38.0625V37.694M33.2909 36.7452V37.1137M33.2909 36.7452L19.5051 44.7044M33.2909 36.7452C33.8745 36.4082 34.2921 36.1666 34.6189 35.9455C34.9417 35.7272 35.1464 35.5479 35.3103 35.3511C35.5928 35.0119 35.8247 34.6104 35.9771 34.1962C36.0656 33.9558 36.1185 33.6888 36.1462 33.3002C36.1742 32.9066 36.1743 32.4244 36.1743 31.7505V12.6857C36.1743 12.0118 36.1742 11.5296 36.1462 11.1684C36.1185 10.8116 36.0656 10.6058 35.9771 10.4676C35.8247 10.2294 35.5929 10.0956 35.3103 10.0826C35.1464 10.0751 34.9417 10.1322 34.6189 10.2866C34.2921 10.4429 33.8745 10.6835 33.2909 11.0204L19.5051 18.9797C18.9214 19.3166 18.5039 19.5582 18.177 19.7793C17.8542 19.9976 17.6495 20.1769 17.4856 20.3737C17.2031 20.7129 16.9713 21.1144 16.8188 21.5287C16.7303 21.7691 16.6774 22.0359 16.6497 22.4247C16.6217 22.8183 16.6213 23.3007 16.6213 23.9746V43.0394C16.6213 43.7133 16.6217 44.1952 16.6497 44.5565C16.6774 44.9132 16.7304 45.119 16.8188 45.2572C16.9713 45.4955 17.2031 45.6293 17.4856 45.6422C17.6495 45.6497 17.8542 45.5927 18.177 45.4383C18.5039 45.2819 18.9214 45.0414 19.5051 44.7044M33.2909 37.1137L19.5051 45.073M33.2909 37.1137L34.0565 36.6677C34.6712 36.3011 35.0645 36.03 35.378 35.6846L35.4617 35.5884C35.757 35.234 36.0059 34.8224 36.1855 34.3936L36.2579 34.2094C36.4347 33.729 36.4789 33.2333 36.49 32.4522L36.4939 31.566V12.5012C36.4939 11.1661 36.4936 10.4985 36.2579 10.1302C36.0759 9.84581 35.799 9.6859 35.4617 9.67049C35.1342 9.6556 34.7271 9.83992 34.0565 10.2144L33.2909 10.6519L19.5051 18.6111C18.3489 19.2787 17.7706 19.6123 17.3338 20.1366C16.9965 20.5416 16.7196 21.0211 16.5376 21.5157C16.3019 22.1562 16.3021 22.8238 16.3021 24.1589L16.3021 43.2237C16.3021 44.5588 16.3019 45.2266 16.5376 45.5949L16.6105 45.6953C16.79 45.9167 17.0386 46.0411 17.3338 46.0546L17.4175 46.0541C17.8451 46.0315 18.421 45.6988 19.5051 45.073M19.5051 45.073V44.7044M36.8536 34.7845V35.153M36.8536 34.7845L28.7944 39.4375M36.8536 34.7845C37.4372 34.4475 37.8548 34.2059 38.1817 33.9848C38.5044 33.7665 38.7092 33.5872 38.8731 33.3904C39.1556 33.0513 39.3875 32.6497 39.5399 32.2354C39.6283 31.9951 39.6813 31.7281 39.709 31.3395C39.737 30.9459 39.737 30.4636 39.737 29.7898V18.3551C39.737 17.6812 39.737 17.1991 39.709 16.8378C39.6813 16.4811 39.6283 16.2753 39.5399 16.1371C39.3874 15.8988 39.1556 15.765 38.8731 15.7521C38.7092 15.7446 38.5044 15.8017 38.1817 15.956C37.8548 16.1124 37.4372 16.353 36.8536 16.6899L28.7944 21.3429C28.2108 21.6799 27.7932 21.9215 27.4663 22.1425C27.1435 22.3609 26.9389 22.5402 26.7749 22.7369C26.4924 23.0761 26.2606 23.4776 26.1081 23.8919C26.0197 24.1323 25.9667 24.3992 25.939 24.7879C25.911 25.1815 25.9106 25.6639 25.9106 26.3378V37.7725C25.9106 38.4463 25.911 38.9283 25.939 39.2895C25.9667 39.6463 26.0197 39.8521 26.1081 39.9903C26.2606 40.2285 26.4924 40.3623 26.7749 40.3753C26.9389 40.3828 27.1435 40.3257 27.4663 40.1713C27.7932 40.015 28.2108 39.7744 28.7944 39.4375M36.8536 35.153L28.7944 39.806M36.8536 35.153L37.6192 34.707C38.234 34.3404 38.6272 34.0693 38.9408 33.7239L39.0245 33.6277C39.3198 33.2733 39.5687 32.8617 39.7482 32.4329L39.8207 32.2486C39.9975 31.7683 40.0417 31.2726 40.0527 30.4915L40.0566 29.6053V18.1706C40.0566 16.8356 40.0564 16.1679 39.8207 15.7997C39.6386 15.5153 39.3618 15.3554 39.0245 15.34C38.6969 15.3251 38.2899 15.5094 37.6192 15.8838L36.8536 16.3214L28.7944 20.9744C27.6382 21.6419 27.0599 21.9756 26.6231 22.4999C26.2858 22.9048 26.0089 23.3843 25.8269 23.879C25.5912 24.5194 25.5914 25.1871 25.5914 26.5221V37.9568C25.5914 39.2918 25.5912 39.9597 25.8269 40.328L25.8998 40.4283C26.0793 40.6497 26.3279 40.7741 26.6231 40.7877L26.7068 40.7872C27.1345 40.7646 27.7103 40.4319 28.7944 39.806M28.7944 39.806V39.4375" stroke="url(#paint3_linear_81_469)" stroke-width="0.5" stroke-miterlimit="1"/>
</g>
</g>
<defs>
<linearGradient id="paint0_linear_81_469" x1="8.49721" y1="-0.205431" x2="48.4059" y2="39.4097" gradientUnits="userSpaceOnUse">
<stop stop-color="#FF6E00"/>
<stop offset="1" stop-color="#3388FF"/>
</linearGradient>
<linearGradient id="paint1_linear_81_469" x1="8.49721" y1="-0.205431" x2="48.4059" y2="39.4097" gradientUnits="userSpaceOnUse">
<stop stop-color="#FF6E00"/>
<stop offset="1" stop-color="#3388FF"/>
</linearGradient>
<linearGradient id="paint2_linear_81_469" x1="8.49721" y1="-0.205431" x2="48.4059" y2="39.4097" gradientUnits="userSpaceOnUse">
<stop stop-color="#FF6E00"/>
<stop offset="1" stop-color="#3388FF"/>
</linearGradient>
<linearGradient id="paint3_linear_81_469" x1="41.5" y1="2.00003" x2="12" y2="49.5" gradientUnits="userSpaceOnUse">
<stop stop-color="#FF6E00"/>
<stop offset="0.485577" stop-color="#FFC5E0"/>
<stop offset="1" stop-color="#3388FF"/>
</linearGradient>
</defs>
</svg>
