<svg viewBox="0 0 54 54" fill="none" xmlns="http://www.w3.org/2000/svg">
<g id="Logo Frame">
<rect x="0.75" y="0.75" width="52.5" height="52.5" rx="10.75" fill="var(--fill-0, white)" fill-opacity="0.65"/>
<rect x="0.75" y="0.75" width="52.5" height="52.5" rx="10.75" stroke="var(--stroke-0, white)" stroke-width="1.5"/>
<g id="Logo">
<path d="M29.4889 31.2347V31.6032L15.703 39.5625V39.194L29.4889 31.2347ZM32.3723 26.24V8.51601C32.3723 7.84209 32.3722 7.35994 32.3442 6.99871C32.3166 6.64194 32.2636 6.43619 32.1751 6.29796C32.0227 6.05972 31.7909 5.9259 31.5083 5.91297C31.3444 5.90548 31.1397 5.96253 30.8169 6.11692C30.4901 6.27326 30.0725 6.51386 29.4889 6.85079L15.703 14.8101C15.1194 15.147 14.7018 15.3886 14.375 15.6097C14.0521 15.828 13.8475 16.0073 13.6835 16.2041C13.401 16.5433 13.1692 16.9448 13.0167 17.3591C12.9283 17.5994 12.8753 17.8663 12.8476 18.2551C12.8196 18.6487 12.8192 19.1311 12.8192 19.805L12.8192 37.529C12.8192 38.2028 12.8196 38.6848 12.8476 39.046C12.8753 39.4027 12.9283 39.6086 13.0167 39.7468C13.1692 39.985 13.401 40.1188 13.6835 40.1318C13.8475 40.1393 14.0521 40.0822 14.375 39.9278C14.7018 39.7715 15.1194 39.5309 15.703 39.194V39.5625C14.6189 40.1884 14.0431 40.5211 13.6154 40.5437L13.5317 40.5442C13.2366 40.5306 12.9879 40.4066 12.8084 40.1853L12.7355 40.0845C12.4998 39.7162 12.5 39.0483 12.5 37.7133L12.5 19.9893C12.5 18.6542 12.4998 17.9866 12.7355 17.3461C12.9175 16.8515 13.1944 16.372 13.5317 15.967C13.9685 15.4427 14.5468 15.109 15.703 14.4415L29.4889 6.48224L30.2545 6.0447C30.9251 5.67027 31.3322 5.48594 31.6597 5.50084C31.9971 5.51625 32.2739 5.67616 32.4559 5.96053C32.6916 6.32882 32.6919 6.99644 32.6919 8.33149V26.0555L32.688 26.9418C32.6769 27.7228 32.6327 28.2185 32.4559 28.6989L32.3835 28.8836C32.2039 29.3123 31.9549 29.7236 31.6597 30.078L31.576 30.1741C31.2625 30.5195 30.8693 30.7906 30.2545 31.1572L29.4889 31.6032V31.2347C30.0725 30.8977 30.4901 30.6561 30.8169 30.4351C31.1397 30.2167 31.3444 30.0374 31.5083 29.8406C31.7908 29.5015 32.0227 29.0999 32.1751 28.6857C32.2636 28.4454 32.3166 28.1783 32.3442 27.7897C32.3722 27.3961 32.3723 26.9138 32.3723 26.24Z" fill="url(#paint0_linear_82_612)"/>
<path d="M35.7908 38.2451V38.6137L22.005 46.5729V46.2044L35.7908 38.2451ZM38.6742 33.2505V14.1857C38.6742 13.5117 38.6742 13.0296 38.6462 12.6683C38.6185 12.3116 38.5655 12.1058 38.4771 11.9676C38.3246 11.7294 38.0928 11.5955 37.8103 11.5826C37.6464 11.5751 37.4416 11.6322 37.1189 11.7865C36.7921 11.9429 36.3744 12.1835 35.7908 12.5204L22.005 20.4797C21.4214 20.8166 21.0038 21.0582 20.677 21.2793C20.3542 21.4976 20.1495 21.6769 19.9856 21.8737C19.703 22.2129 19.4712 22.6144 19.3188 23.0287C19.2303 23.269 19.1774 23.5359 19.1497 23.9247C19.1217 24.3182 19.1212 24.8007 19.1212 25.4746V44.5394C19.1212 45.2133 19.1217 45.6952 19.1497 46.0564C19.1774 46.4132 19.2303 46.619 19.3188 46.7572C19.4712 46.9955 19.703 47.1293 19.9856 47.1422C20.1495 47.1497 20.3542 47.0927 20.677 46.9383C21.0038 46.7819 21.4214 46.5413 22.005 46.2044V46.5729C20.921 47.1988 20.3451 47.5315 19.9174 47.5541L19.8338 47.5546C19.5385 47.5411 19.29 47.4166 19.1104 47.1952L19.0375 47.0949C18.8019 46.7266 18.802 46.0587 18.802 44.7237L18.802 25.6589C18.802 24.3238 18.8019 23.6561 19.0375 23.0157C19.2196 22.5211 19.4964 22.0416 19.8338 21.6366C20.2705 21.1123 20.8488 20.7786 22.005 20.1111L35.7908 12.1519L36.5564 11.7143C37.2271 11.3399 37.6341 11.1556 37.9617 11.1705C38.299 11.1859 38.5758 11.3458 38.7579 11.6302C38.9936 11.9985 38.9938 12.6661 38.9938 14.0011V33.0659L38.9899 33.9522C38.9789 34.7332 38.9347 35.229 38.7579 35.7093L38.6854 35.8936C38.5059 36.3224 38.2569 36.734 37.9617 37.0884L37.878 37.1845C37.5644 37.53 37.1712 37.801 36.5564 38.1677L35.7908 38.6137V38.2451C36.3744 37.9082 36.7921 37.6666 37.1189 37.4455C37.4416 37.2272 37.6464 37.0479 37.8103 36.8511C38.0928 36.5119 38.3246 36.1104 38.4771 35.6961C38.5655 35.4558 38.6185 35.1888 38.6462 34.8001C38.6742 34.4066 38.6742 33.9243 38.6742 33.2505Z" fill="url(#paint1_linear_82_612)"/>
<path d="M39.3536 36.2844V36.653L31.2944 41.306V40.9374L39.3536 36.2844ZM42.237 31.2898V19.8551C42.237 19.1812 42.237 18.699 42.2089 18.3378C42.1813 17.981 42.1283 17.7753 42.0399 17.6371C41.8874 17.3988 41.6556 17.265 41.373 17.2521C41.2091 17.2446 41.0044 17.3016 40.6816 17.456C40.3548 17.6124 39.9371 17.853 39.3536 18.1899L31.2944 22.8429C30.7107 23.1798 30.2932 23.4214 29.9663 23.6425C29.6435 23.8608 29.4388 24.0401 29.2749 24.2369C28.9923 24.5761 28.7605 24.9776 28.6081 25.3919C28.5196 25.6323 28.4667 25.8991 28.439 26.2879C28.411 26.6815 28.4105 27.1639 28.4105 27.8378V39.2725C28.4105 39.9463 28.411 40.4283 28.439 40.7895C28.4667 41.1462 28.5197 41.352 28.6081 41.4903C28.7605 41.7285 28.9924 41.8623 29.2749 41.8753C29.4388 41.8827 29.6435 41.8257 29.9663 41.6713C30.2932 41.515 30.7107 41.2744 31.2944 40.9374V41.306C30.2103 41.9319 29.6344 42.2646 29.2068 42.2871L29.1231 42.2876C28.8279 42.2741 28.5793 42.1497 28.3998 41.9283L28.3269 41.8279C28.0912 41.4596 28.0914 40.7918 28.0914 39.4567V28.0221C28.0914 26.687 28.0912 26.0194 28.3269 25.3789C28.5089 24.8843 28.7857 24.4048 29.1231 23.9999C29.5599 23.4755 30.1382 23.1419 31.2944 22.4743L39.3536 17.8213L40.1192 17.3838C40.7898 17.0094 41.1969 16.825 41.5244 16.8399C41.8618 16.8553 42.1386 17.0152 42.3206 17.2996C42.5563 17.6679 42.5566 18.3355 42.5566 19.6706V31.1052L42.5527 31.9915C42.5417 32.7726 42.4974 33.2683 42.3206 33.7486L42.2482 33.9329C42.0686 34.3617 41.8197 34.7732 41.5244 35.1277L41.4408 35.2238C41.1272 35.5693 40.734 35.8403 40.1192 36.207L39.3536 36.653V36.2844C39.9371 35.9475 40.3548 35.7059 40.6816 35.4848C41.0044 35.2665 41.2091 35.0871 41.373 34.8904C41.6555 34.5512 41.8874 34.1497 42.0399 33.7354C42.1283 33.4951 42.1813 33.2281 42.2089 32.8394C42.2369 32.4459 42.237 31.9636 42.237 31.2898Z" fill="url(#paint2_linear_82_612)"/>
<path d="M29.4889 31.2347V31.6032M29.4889 31.2347L15.703 39.194M29.4889 31.2347C30.0725 30.8977 30.4901 30.6561 30.8169 30.4351C31.1397 30.2167 31.3444 30.0374 31.5083 29.8406C31.7908 29.5015 32.0227 29.0999 32.1751 28.6857C32.2636 28.4454 32.3166 28.1783 32.3442 27.7897C32.3722 27.3961 32.3723 26.9138 32.3723 26.24V8.51601C32.3723 7.84209 32.3722 7.35994 32.3442 6.99871C32.3166 6.64194 32.2636 6.43619 32.1751 6.29796C32.0227 6.05972 31.7909 5.9259 31.5083 5.91297C31.3444 5.90548 31.1397 5.96253 30.8169 6.11692C30.4901 6.27326 30.0725 6.51386 29.4889 6.85079L15.703 14.8101C15.1194 15.147 14.7018 15.3886 14.375 15.6097C14.0521 15.828 13.8475 16.0073 13.6835 16.2041C13.401 16.5433 13.1692 16.9448 13.0167 17.3591C12.9283 17.5994 12.8753 17.8663 12.8476 18.2551C12.8196 18.6487 12.8192 19.1311 12.8192 19.805L12.8192 37.529C12.8192 38.2028 12.8196 38.6848 12.8476 39.046C12.8753 39.4027 12.9283 39.6086 13.0167 39.7468C13.1692 39.985 13.401 40.1188 13.6835 40.1318C13.8475 40.1393 14.0521 40.0822 14.375 39.9278C14.7018 39.7715 15.1194 39.5309 15.703 39.194M29.4889 31.6032L15.703 39.5625M29.4889 31.6032L30.2545 31.1572C30.8693 30.7906 31.2625 30.5195 31.576 30.1741L31.6597 30.078C31.9549 29.7236 32.2039 29.3123 32.3835 28.8836L32.4559 28.6989C32.6327 28.2185 32.6769 27.7228 32.688 26.9418L32.6919 26.0555V8.33149C32.6919 6.99644 32.6916 6.32882 32.4559 5.96053C32.2739 5.67616 31.9971 5.51625 31.6597 5.50084C31.3322 5.48594 30.9251 5.67027 30.2545 6.0447L29.4889 6.48224L15.703 14.4415C14.5468 15.109 13.9685 15.4427 13.5317 15.967C13.1944 16.372 12.9175 16.8515 12.7355 17.3461C12.4998 17.9866 12.5 18.6542 12.5 19.9893L12.5 37.7133C12.5 39.0483 12.4998 39.7162 12.7355 40.0845L12.8084 40.1853C12.9879 40.4066 13.2366 40.5306 13.5317 40.5442L13.6154 40.5437C14.0431 40.5211 14.6189 40.1884 15.703 39.5625M15.703 39.5625V39.194M35.7908 38.2451V38.6137M35.7908 38.2451L22.005 46.2044M35.7908 38.2451C36.3744 37.9082 36.7921 37.6666 37.1189 37.4455C37.4416 37.2272 37.6464 37.0479 37.8103 36.8511C38.0928 36.5119 38.3246 36.1104 38.4771 35.6961C38.5655 35.4558 38.6185 35.1888 38.6462 34.8001C38.6742 34.4066 38.6742 33.9243 38.6742 33.2505V14.1857C38.6742 13.5117 38.6742 13.0296 38.6462 12.6683C38.6185 12.3116 38.5655 12.1058 38.4771 11.9676C38.3246 11.7294 38.0928 11.5955 37.8103 11.5826C37.6464 11.5751 37.4416 11.6322 37.1189 11.7865C36.7921 11.9429 36.3744 12.1835 35.7908 12.5204L22.005 20.4797C21.4214 20.8166 21.0038 21.0582 20.677 21.2793C20.3542 21.4976 20.1495 21.6769 19.9856 21.8737C19.703 22.2129 19.4712 22.6144 19.3188 23.0287C19.2303 23.269 19.1774 23.5359 19.1497 23.9247C19.1217 24.3182 19.1212 24.8007 19.1212 25.4746V44.5394C19.1212 45.2133 19.1217 45.6952 19.1497 46.0564C19.1774 46.4132 19.2303 46.619 19.3188 46.7572C19.4712 46.9955 19.703 47.1293 19.9856 47.1422C20.1495 47.1497 20.3542 47.0927 20.677 46.9383C21.0038 46.7819 21.4214 46.5413 22.005 46.2044M35.7908 38.6137L22.005 46.5729M35.7908 38.6137L36.5564 38.1677C37.1712 37.801 37.5644 37.53 37.878 37.1845L37.9617 37.0884C38.2569 36.734 38.5059 36.3224 38.6854 35.8936L38.7579 35.7093C38.9347 35.229 38.9789 34.7332 38.9899 33.9522L38.9938 33.0659V14.0011C38.9938 12.6661 38.9936 11.9985 38.7579 11.6302C38.5758 11.3458 38.299 11.1859 37.9617 11.1705C37.6341 11.1556 37.2271 11.3399 36.5564 11.7143L35.7908 12.1519L22.005 20.1111C20.8488 20.7786 20.2705 21.1123 19.8338 21.6366C19.4964 22.0416 19.2196 22.5211 19.0375 23.0157C18.8019 23.6561 18.802 24.3238 18.802 25.6589L18.802 44.7237C18.802 46.0587 18.8019 46.7266 19.0375 47.0949L19.1104 47.1952C19.29 47.4166 19.5385 47.5411 19.8338 47.5546L19.9174 47.5541C20.3451 47.5315 20.921 47.1988 22.005 46.5729M22.005 46.5729V46.2044M39.3536 36.2844V36.653M39.3536 36.2844L31.2944 40.9374M39.3536 36.2844C39.9371 35.9475 40.3548 35.7059 40.6816 35.4848C41.0044 35.2665 41.2091 35.0871 41.373 34.8904C41.6555 34.5512 41.8874 34.1497 42.0399 33.7354C42.1283 33.4951 42.1813 33.2281 42.2089 32.8394C42.2369 32.4459 42.237 31.9636 42.237 31.2898V19.8551C42.237 19.1812 42.237 18.699 42.2089 18.3378C42.1813 17.981 42.1283 17.7753 42.0399 17.6371C41.8874 17.3988 41.6556 17.265 41.373 17.2521C41.2091 17.2446 41.0044 17.3016 40.6816 17.456C40.3548 17.6124 39.9371 17.853 39.3536 18.1899L31.2944 22.8429C30.7107 23.1798 30.2932 23.4214 29.9663 23.6425C29.6435 23.8608 29.4388 24.0401 29.2749 24.2369C28.9923 24.5761 28.7605 24.9776 28.6081 25.3919C28.5196 25.6323 28.4667 25.8991 28.439 26.2879C28.411 26.6815 28.4105 27.1639 28.4105 27.8378V39.2725C28.4105 39.9463 28.411 40.4283 28.439 40.7895C28.4667 41.1462 28.5197 41.352 28.6081 41.4903C28.7605 41.7285 28.9924 41.8623 29.2749 41.8753C29.4388 41.8827 29.6435 41.8257 29.9663 41.6713C30.2932 41.515 30.7107 41.2744 31.2944 40.9374M39.3536 36.653L31.2944 41.306M39.3536 36.653L40.1192 36.207C40.734 35.8403 41.1272 35.5693 41.4408 35.2238L41.5244 35.1277C41.8197 34.7732 42.0686 34.3617 42.2482 33.9329L42.3206 33.7486C42.4974 33.2683 42.5417 32.7726 42.5527 31.9915L42.5566 31.1052V19.6706C42.5566 18.3355 42.5563 17.6679 42.3206 17.2996C42.1386 17.0152 41.8618 16.8553 41.5244 16.8399C41.1969 16.825 40.7898 17.0094 40.1192 17.3838L39.3536 17.8213L31.2944 22.4743C30.1382 23.1419 29.5599 23.4755 29.1231 23.9999C28.7857 24.4048 28.5089 24.8843 28.3269 25.3789C28.0912 26.0194 28.0914 26.687 28.0914 28.0221V39.4567C28.0914 40.7918 28.0912 41.4596 28.3269 41.8279L28.3998 41.9283C28.5793 42.1497 28.8279 42.2741 29.1231 42.2876L29.2068 42.2871C29.6344 42.2646 30.2103 41.9319 31.2944 41.306M31.2944 41.306V40.9374" stroke="url(#paint3_linear_82_612)" stroke-width="0.5" stroke-miterlimit="1"/>
</g>
</g>
<defs>
<linearGradient id="paint0_linear_82_612" x1="10.9972" y1="1.29454" x2="50.9059" y2="40.9097" gradientUnits="userSpaceOnUse">
<stop stop-color="#FF6E00"/>
<stop offset="1" stop-color="#3388FF"/>
</linearGradient>
<linearGradient id="paint1_linear_82_612" x1="10.9972" y1="1.29454" x2="50.9059" y2="40.9097" gradientUnits="userSpaceOnUse">
<stop stop-color="#FF6E00"/>
<stop offset="1" stop-color="#3388FF"/>
</linearGradient>
<linearGradient id="paint2_linear_82_612" x1="10.9972" y1="1.29454" x2="50.9059" y2="40.9097" gradientUnits="userSpaceOnUse">
<stop stop-color="#FF6E00"/>
<stop offset="1" stop-color="#3388FF"/>
</linearGradient>
<linearGradient id="paint3_linear_82_612" x1="44" y1="3.5" x2="14.5" y2="51" gradientUnits="userSpaceOnUse">
<stop stop-color="#FF6E00"/>
<stop offset="0.485577" stop-color="#FFC5E0"/>
<stop offset="1" stop-color="#3388FF"/>
</linearGradient>
</defs>
</svg>
