<svg width="307" height="180" viewBox="0 0 307 180" fill="none" xmlns="http://www.w3.org/2000/svg">
<path d="M152.5 169C219.05 169 273 133.407 273 89.5C273 45.5934 219.05 10 152.5 9.99999C85.9497 9.99999 32 45.5934 32 89.5C32 133.407 85.9497 169 152.5 169ZM152.5 171C118.889 171 88.3692 162.016 66.1924 147.385C44.0315 132.764 30 112.34 30 89.5C30 66.6601 44.0315 46.2359 66.1924 31.6152C88.3692 16.9841 118.889 7.99999 152.5 7.99999C186.111 8 216.631 16.9841 238.808 31.6152C260.969 46.2359 275 66.6601 275 89.5C275 112.34 260.969 132.764 238.808 147.385C216.631 162.016 186.111 171 152.5 171Z" fill="#8A673F"/>
<path d="M167.551 31.496C172.268 32.8914 176.26 35.1318 179.525 38.2171C182.722 41.2825 184.857 45.0932 185.928 49.649C186.912 54.2499 186.539 59.4739 184.81 65.3209C183.061 71.2329 180.532 75.8189 177.222 79.079C173.845 82.3192 170.015 84.3655 165.732 85.2181C161.362 86.1157 156.852 85.8767 152.202 84.5012C147.417 83.0858 143.435 80.8129 140.257 77.6825C137.078 74.5522 134.997 70.6866 134.012 66.0856C132.941 61.5298 133.28 56.2958 135.029 50.3839C136.778 44.4719 139.307 39.8858 142.617 36.6258C145.926 33.3657 149.747 31.3518 154.078 30.5841C158.41 29.8165 162.901 30.1204 167.551 31.496ZM165.288 38.7748C162.12 37.8379 159.179 37.7451 156.465 38.4966C153.732 39.313 151.355 40.9061 149.335 43.2759C147.314 45.6457 145.718 48.8121 144.546 52.775C143.355 56.803 142.976 60.4356 143.411 63.6729C143.827 66.9752 144.984 69.7548 146.881 72.0117C148.692 74.3137 151.249 75.9531 154.551 76.9299C157.651 77.847 160.578 77.8648 163.33 76.9834C166.064 76.1669 168.484 74.5513 170.591 72.1365C172.698 69.7217 174.328 66.5653 175.481 62.6673C177.229 56.7553 177.231 51.669 175.487 47.4084C173.675 43.1279 170.275 40.25 165.288 38.7748Z" fill="#8A673F"/>
<path d="M170.204 146.768C165.578 148.45 161.034 149.021 156.572 148.479C152.175 147.914 148.192 146.116 144.621 143.087C141.093 139.969 138.286 135.544 136.202 129.81C134.093 124.012 133.402 118.818 134.127 114.226C134.918 109.61 136.783 105.686 139.724 102.453C142.706 99.1321 146.478 96.6426 151.038 94.9844C155.731 93.2782 160.287 92.7397 164.706 93.369C169.125 93.9982 173.099 95.8715 176.627 98.9888C180.198 102.018 183.037 106.432 185.146 112.23C187.254 118.027 187.945 123.222 187.22 127.813C186.495 132.405 184.618 136.298 181.589 139.491C178.559 142.684 174.765 145.11 170.204 146.768ZM167.697 139.565C170.804 138.435 173.226 136.761 174.963 134.543C176.677 132.26 177.643 129.565 177.859 126.456C178.076 123.348 177.478 119.851 176.065 115.964C174.628 112.014 172.773 108.866 170.498 106.519C168.2 104.109 165.616 102.56 162.747 101.872C159.921 101.096 156.888 101.297 153.65 102.475C150.609 103.58 148.244 105.306 146.553 107.652C144.838 109.934 143.851 112.674 143.592 115.87C143.332 119.066 143.897 122.575 145.287 126.398C147.395 132.196 150.418 136.29 154.356 138.681C158.359 141.049 162.807 141.343 167.697 139.565Z" fill="#8A673F"/>
<path d="M64.7325 126.297L57.2266 65.3772L70.5181 63.7395L94.7124 113.326L94.897 113.303L106.147 59.3497L118.977 57.7689L126.483 118.688L118.36 119.689L111.912 67.3538L111.727 67.3765L100.084 121.941L91.1309 123.044L66.58 72.8454L66.3954 72.8682L72.8551 125.296L64.7325 126.297Z" fill="#8A673F"/>
<path d="M197.445 121.531L198.128 114.122L215.353 115.709C219.242 116.068 222.6 115.443 225.425 113.836C228.312 112.234 230.592 109.798 232.263 106.527C233.94 103.195 234.997 99.1521 235.435 94.3982C235.754 90.9408 235.673 87.7581 235.194 84.8498C234.777 81.9473 233.859 79.4034 232.442 77.2181C231.092 74.9767 229.171 73.181 226.681 71.8307C224.196 70.4188 221.04 69.5364 217.212 69.1837L202.395 67.8183L203.077 60.4097L217.709 61.758C224.5 62.3838 229.946 64.0997 234.046 66.9057C238.207 69.7175 241.099 73.4706 242.721 78.1653C244.349 82.7982 244.878 88.2016 244.31 94.3754C243.866 99.191 242.957 103.31 241.583 106.732C240.271 110.16 238.578 112.993 236.504 115.23C234.492 117.473 232.278 119.199 229.863 120.409C227.509 121.624 225.036 122.454 222.442 122.9C219.854 123.284 217.325 123.363 214.855 123.135L197.445 121.531ZM193 121.121L198.632 60.0001L207.152 60.7852L201.52 121.906L193 121.121Z" fill="#8A673F"/>
<path opacity="0.36" d="M263 177V180H44V177H263ZM304 136V44C304 21.3563 285.644 3 263 3H44C21.3563 3 3 21.3563 3 44V136C3 158.644 21.3563 177 44 177V180L42.8643 179.985C19.4661 179.393 0.607493 160.534 0.0146484 137.136L0 136V44C0 20.0792 19.0886 0.617055 42.8643 0.0146484L44 0H263C287.301 0 307 19.6995 307 44V136C307 160.301 287.301 180 263 180V177C285.644 177 304 158.644 304 136Z" fill="#8A673F"/>
</svg>
