<svg width="16" height="16" viewBox="0 0 16 16" fill="none" xmlns="http://www.w3.org/2000/svg">
<g id="FlowerTulip">
<path id="Vector" d="M8 0.879525C8.07211 0.879525 8.14347 0.892225 8.21094 0.916634L8.27734 0.944954L8.2793 0.945931C8.35656 0.985883 9.87243 1.76018 10.8369 3.3141C11.5217 3.02732 12.2569 2.87887 13 2.87952C13.1643 2.87952 13.3222 2.945 13.4385 3.06117C13.5547 3.17735 13.62 3.33534 13.6201 3.49964V6.00062C13.6183 7.40193 13.0932 8.75182 12.1484 9.78675C11.2282 10.7947 9.97398 11.4308 8.62012 11.5826V13.4957L10.7227 12.445C10.8698 12.3714 11.0403 12.3597 11.1963 12.4118C11.3522 12.4638 11.4811 12.5753 11.5547 12.7223C11.6282 12.8693 11.6408 13.0399 11.5889 13.1959C11.5368 13.352 11.4245 13.4817 11.2773 13.5553L8.27734 15.0553C8.19128 15.0983 8.09621 15.1207 8 15.1207C7.90368 15.1207 7.80879 15.0974 7.72266 15.0543L4.72266 13.5553C4.64987 13.5189 4.58459 13.4683 4.53125 13.4069C4.47788 13.3453 4.43689 13.2732 4.41113 13.1959C4.38545 13.1187 4.37509 13.0368 4.38086 12.9557C4.38667 12.8745 4.40893 12.7951 4.44531 12.7223C4.48173 12.6496 4.53229 12.5842 4.59375 12.5309C4.65516 12.4777 4.72665 12.4375 4.80371 12.4118C4.88099 12.386 4.96269 12.3757 5.04395 12.3815C5.12515 12.3872 5.20452 12.4086 5.27734 12.445L7.37988 13.4957V11.5826C6.02602 11.4308 4.77177 10.7947 3.85156 9.78675C2.90678 8.75182 2.38169 7.40193 2.37988 6.00062V3.49964C2.37998 3.33534 2.44534 3.17735 2.56152 3.06117C2.67778 2.945 2.83565 2.87952 3 2.87952L3.29102 2.88734C3.93425 2.92031 4.56712 3.06504 5.16211 3.3141C6.12446 1.75966 7.64399 0.985458 7.72168 0.945931L7.72266 0.944954C7.80875 0.90191 7.90375 0.879525 8 0.879525ZM3.62012 5.99964C3.62137 7.07658 4.0185 8.11578 4.73633 8.91859C5.42434 9.68787 6.36123 10.1876 7.37988 10.3346V8.50062L7.375 8.29847C7.32763 7.29418 6.93651 6.33422 6.26367 5.58167C5.57563 4.81236 4.63881 4.31166 3.62012 4.16468V5.99964ZM12.3799 4.16468C11.3612 4.31166 10.4244 4.81236 9.73633 5.58167C9.01858 6.38446 8.62137 7.42374 8.62012 8.50062V10.3346C9.63877 10.1876 10.5757 9.68787 11.2637 8.91859C11.9815 8.11578 12.3786 7.07658 12.3799 5.99964V4.16468ZM8 2.21644C7.58374 2.48115 6.79936 3.05472 6.24609 3.91859C6.98546 4.44319 7.58634 5.13673 8 5.94202C8.41365 5.13705 9.01397 4.44325 9.75293 3.91859C9.20012 3.05371 8.41641 2.47988 8 2.21644Z" fill="url(#paint0_linear_81_455)" stroke="url(#paint1_linear_81_455)" stroke-width="0.24"/>
</g>
<defs>
<linearGradient id="paint0_linear_81_455" x1="8" y1="4.50001" x2="10.3025" y2="14.4682" gradientUnits="userSpaceOnUse">
<stop stop-color="white"/>
<stop offset="0.731382" stop-color="#CEE2FF"/>
<stop offset="1" stop-color="#FFEACA"/>
</linearGradient>
<linearGradient id="paint1_linear_81_455" x1="8" y1="8.49159e-06" x2="16.3898" y2="12.5662" gradientUnits="userSpaceOnUse">
<stop stop-color="#F9AE7B"/>
<stop offset="1" stop-color="#4263CE" stop-opacity="0.3"/>
</linearGradient>
</defs>
</svg>
