<svg width="16" height="16" viewBox="0 0 16 16" fill="none" xmlns="http://www.w3.org/2000/svg">
<path d="M13 3C12.239 2.99931 11.4863 3.15748 10.79 3.46438C9.84625 1.87875 8.295 1.08938 8.22375 1.0525C8.15429 1.01774 8.07768 0.999642 8 0.999642C7.92232 0.999642 7.84571 1.01774 7.77625 1.0525C7.705 1.08875 6.15125 1.87875 5.21 3.46438C4.51368 3.15748 3.76096 2.99931 3 3C2.86739 3 2.74021 3.05268 2.64645 3.14645C2.55268 3.24021 2.5 3.36739 2.5 3.5V6C2.50165 7.37162 3.01511 8.69326 3.93989 9.70624C4.86467 10.7192 6.1342 11.3506 7.5 11.4769V13.6912L5.22375 12.5525C5.16498 12.5231 5.101 12.5056 5.03547 12.5009C4.96993 12.4963 4.90412 12.5046 4.84178 12.5254C4.77945 12.5461 4.72182 12.579 4.67219 12.622C4.62255 12.6651 4.58188 12.7175 4.5525 12.7762C4.52312 12.835 4.5056 12.899 4.50094 12.9645C4.49628 13.0301 4.50458 13.0959 4.52535 13.1582C4.54613 13.2205 4.57898 13.2782 4.62203 13.3278C4.66508 13.3774 4.71748 13.4181 4.77625 13.4475L7.77625 14.9475C7.84571 14.9823 7.92232 15.0004 8 15.0004C8.07768 15.0004 8.15429 14.9823 8.22375 14.9475L11.2238 13.4475C11.3424 13.3882 11.4327 13.2841 11.4746 13.1582C11.5166 13.0323 11.5068 12.8949 11.4475 12.7762C11.3882 12.6576 11.2841 12.5673 11.1582 12.5254C11.0323 12.4834 10.8949 12.4932 10.7762 12.5525L8.5 13.6912V11.4769C9.8658 11.3506 11.1353 10.7192 12.0601 9.70624C12.9849 8.69326 13.4984 7.37162 13.5 6V3.5C13.5 3.36739 13.4473 3.24021 13.3536 3.14645C13.2598 3.05268 13.1326 3 13 3ZM7.5 10.4725C6.40043 10.3482 5.38505 9.82363 4.64737 8.99881C3.90968 8.17399 3.50128 7.10657 3.5 6V4.0275C4.59957 4.15182 5.61495 4.67637 6.35263 5.50119C7.09032 6.32601 7.49872 7.39343 7.5 8.5V10.4725ZM8 6.21C7.57938 5.29617 6.91724 4.51452 6.085 3.94937C6.68313 2.9625 7.585 2.33062 8 2.07437C8.41563 2.32937 9.3175 2.96125 9.915 3.94937C9.08289 4.51467 8.42078 5.29627 8 6.21ZM12.5 6C12.4987 7.10657 12.0903 8.17399 11.3526 8.99881C10.615 9.82363 9.59957 10.3482 8.5 10.4725V8.5C8.50128 7.39343 8.90968 6.32601 9.64736 5.50119C10.385 4.67637 11.4004 4.15182 12.5 4.0275V6Z" fill="#423B32"/>
</svg>
