<svg width="101" height="101" viewBox="0 0 101 101" fill="none" xmlns="http://www.w3.org/2000/svg">
<g filter="url(#filter0_d_99_666)">
<rect x="15.3301" y="13.93" width="70" height="70" rx="7" fill="white" shape-rendering="crispEdges"/>
<rect x="14.9801" y="13.58" width="70.7" height="70.7" rx="7.35" stroke="#DDDDDD" stroke-width="0.7" shape-rendering="crispEdges"/>
<path d="M52.9326 54.4983V54.9891L34.6318 65.5877V65.0969L52.9326 54.4983ZM56.7602 47.8474V24.2461C56.7602 23.3487 56.7602 22.7067 56.723 22.2257C56.6863 21.7506 56.616 21.4766 56.4986 21.2925C56.2962 20.9753 55.9884 20.7971 55.6134 20.7799C55.3958 20.7699 55.124 20.8459 54.6955 21.0515C54.2617 21.2597 53.7073 21.58 52.9326 22.0287L34.6318 32.6273C33.8571 33.076 33.3028 33.3977 32.8689 33.6921C32.4403 33.9828 32.1687 34.2216 31.951 34.4836C31.5759 34.9353 31.2682 35.4699 31.0658 36.0216C30.9484 36.3416 30.8781 36.697 30.8414 37.2147C30.8042 37.7388 30.8036 38.3812 30.8036 39.2785L30.8036 62.8799C30.8036 63.7771 30.8042 64.419 30.8414 64.9C30.8781 65.375 30.9485 65.649 31.0658 65.8331C31.2682 66.1503 31.576 66.3285 31.951 66.3458C32.1687 66.3557 32.4403 66.2798 32.8689 66.0742C33.3028 65.866 33.8571 65.5456 34.6318 65.0969V65.5877C33.1927 66.4212 32.4283 66.8642 31.8606 66.8942L31.7495 66.8949C31.3577 66.8769 31.0276 66.7117 30.7893 66.417L30.6925 66.2828C30.3797 65.7923 30.3799 64.903 30.3799 63.1252L30.3799 39.5239C30.3799 37.7462 30.3796 36.8571 30.6925 36.0043C30.9342 35.3457 31.3017 34.7072 31.7495 34.1679C32.3293 33.4697 33.097 33.0254 34.6318 32.1365L52.9326 21.5379L53.9489 20.9553C54.8392 20.4567 55.3795 20.2113 55.8143 20.2311C56.2622 20.2516 56.6296 20.4646 56.8713 20.8432C57.1842 21.3336 57.1845 22.2226 57.1845 24.0004V47.6017L57.1794 48.7819C57.1647 49.822 57.106 50.482 56.8713 51.1217L56.7751 51.3677C56.5368 51.9385 56.2062 52.4862 55.8143 52.9581L55.7033 53.086C55.287 53.546 54.765 53.907 53.9489 54.3952L52.9326 54.9891V54.4983C53.7073 54.0497 54.2617 53.7279 54.6955 53.4336C55.124 53.1429 55.3958 52.904 55.6134 52.642C55.9884 52.1904 56.2962 51.6557 56.4986 51.1041C56.6159 50.7841 56.6863 50.4285 56.723 49.911C56.7602 49.3869 56.7602 48.7447 56.7602 47.8474Z" fill="url(#paint0_linear_99_666)"/>
<path d="M61.2984 63.8335V64.3243L42.9978 74.9228V74.4321L61.2984 63.8335ZM65.1261 57.1826V31.7958C65.1261 30.8984 65.126 30.2564 65.0888 29.7754C65.0521 29.3003 64.9818 29.0263 64.8644 28.8422C64.662 28.525 64.3543 28.3468 63.9792 28.3296C63.7616 28.3196 63.4898 28.3956 63.0614 28.6012C62.6275 28.8093 62.0731 29.1297 61.2984 29.5784L42.9978 40.1769C42.223 40.6256 41.6687 40.9474 41.2348 41.2417C40.8063 41.5324 40.5346 41.7712 40.317 42.0332C39.9419 42.4849 39.6342 43.0195 39.4318 43.5712C39.3143 43.8913 39.244 44.2467 39.2073 44.7643C39.1701 45.2884 39.1695 45.9308 39.1695 46.8282V72.2149C39.1695 73.1123 39.1701 73.7541 39.2073 74.2351C39.244 74.7101 39.3144 74.9841 39.4318 75.1682C39.6342 75.4854 39.9419 75.6636 40.317 75.6808C40.5346 75.6908 40.8063 75.6149 41.2348 75.4093C41.6687 75.2011 42.223 74.8807 42.9978 74.4321V74.9228C41.5587 75.7562 40.7942 76.1992 40.2265 76.2293L40.1154 76.23C39.7235 76.212 39.3935 76.0463 39.1552 75.7515L39.0584 75.6178C38.7456 75.1274 38.7458 74.2381 38.7458 72.4603L38.7458 47.0736C38.7458 45.2958 38.7456 44.4068 39.0584 43.554C39.3001 42.8953 39.6676 42.2568 40.1154 41.7176C40.6952 41.0194 41.4629 40.575 42.9978 39.6862L61.2984 29.0876L62.3147 28.505C63.205 28.0064 63.7454 27.761 64.1802 27.7808C64.628 27.8013 64.9955 28.0142 65.2371 28.3929C65.55 28.8833 65.5503 29.7724 65.5503 31.5501V56.9369L65.5452 58.117C65.5305 59.157 65.4718 59.8172 65.2371 60.4568L65.1409 60.7022C64.9026 61.2732 64.5721 61.8212 64.1802 62.2932L64.0691 62.4212C63.6528 62.8812 63.1308 63.2421 62.3147 63.7304L61.2984 64.3243V63.8335C62.0731 63.3848 62.6275 63.0631 63.0614 62.7687C63.4898 62.478 63.7616 62.2392 63.9792 61.9772C64.3542 61.5255 64.662 60.9909 64.8644 60.4392C64.9818 60.1192 65.0521 59.7637 65.0888 59.2461C65.126 58.722 65.1261 58.0799 65.1261 57.1826Z" fill="url(#paint1_linear_99_666)"/>
<path d="M66.0279 61.2226V61.7134L55.3293 67.9093V67.4186L66.0279 61.2226ZM69.8556 54.5717V39.3453C69.8556 38.4479 69.8556 37.8059 69.8184 37.3248C69.7817 36.8498 69.7113 36.5758 69.5939 36.3917C69.3916 36.0745 69.0838 35.8963 68.7087 35.8791C68.4911 35.8691 68.2193 35.9451 67.7909 36.1506C67.357 36.3588 66.8026 36.6792 66.0279 37.1279L55.3293 43.3238C54.5546 43.7725 54.0002 44.0942 53.5663 44.3886C53.1378 44.6793 52.8661 44.9181 52.6485 45.1801C52.2734 45.6318 51.9657 46.1664 51.7633 46.7181C51.6459 47.0382 51.5756 47.3935 51.5389 47.9112C51.5017 48.4353 51.5011 49.0777 51.5011 49.9751V65.2015C51.5011 66.0988 51.5017 66.7406 51.5389 67.2216C51.5756 67.6966 51.6459 67.9707 51.7633 68.1547C51.9657 68.472 52.2734 68.6501 52.6485 68.6674C52.8661 68.6773 53.1378 68.6014 53.5663 68.3958C54.0002 68.1876 54.5546 67.8673 55.3293 67.4186V67.9093C53.8902 68.7428 53.1258 69.1858 52.558 69.2158L52.447 69.2165C52.0551 69.1985 51.7251 69.0328 51.4867 68.738L51.39 68.6044C51.0771 68.1139 51.0774 67.2246 51.0774 65.4469V50.2204C51.0774 48.4427 51.0771 47.5536 51.39 46.7008C51.6316 46.0422 51.9991 45.4037 52.447 44.8644C53.0268 44.1663 53.7945 43.7219 55.3293 42.8331L66.0279 36.6371L67.0443 36.0545C67.9345 35.5559 68.4749 35.3104 68.9097 35.3303C69.3575 35.3508 69.725 35.5637 69.9667 35.9424C70.2795 36.4328 70.2799 37.3218 70.2799 39.0996V54.326L70.2747 55.5062C70.2601 56.5462 70.2013 57.2063 69.9667 57.8459L69.8705 58.0913C69.6321 58.6623 69.3017 59.2103 68.9097 59.6823L68.7986 59.8103C68.3824 60.2703 67.8604 60.6313 67.0443 61.1195L66.0279 61.7134V61.2226C66.8026 60.774 67.357 60.4522 67.7909 60.1578C68.2193 59.8672 68.4911 59.6283 68.7087 59.3663C69.0837 58.9147 69.3916 58.3799 69.5939 57.8283C69.7113 57.5084 69.7817 57.1528 69.8184 56.6353C69.8556 56.1112 69.8556 55.469 69.8556 54.5717Z" fill="url(#paint2_linear_99_666)"/>
<path d="M52.9326 54.4983V54.9891M52.9326 54.4983L34.6318 65.0969M52.9326 54.4983C53.7073 54.0497 54.2617 53.7279 54.6955 53.4336C55.124 53.1429 55.3958 52.904 55.6134 52.642C55.9884 52.1904 56.2962 51.6557 56.4986 51.1041C56.6159 50.7841 56.6863 50.4285 56.723 49.911C56.7602 49.3869 56.7602 48.7447 56.7602 47.8474V24.2461C56.7602 23.3487 56.7602 22.7067 56.723 22.2257C56.6863 21.7506 56.616 21.4766 56.4986 21.2925C56.2962 20.9753 55.9884 20.7971 55.6134 20.7799C55.3958 20.7699 55.124 20.8459 54.6955 21.0515C54.2617 21.2597 53.7073 21.58 52.9326 22.0287L34.6318 32.6273C33.8571 33.076 33.3028 33.3977 32.8689 33.6921C32.4403 33.9828 32.1687 34.2216 31.951 34.4836C31.5759 34.9353 31.2682 35.4699 31.0658 36.0216C30.9484 36.3416 30.8781 36.697 30.8414 37.2147C30.8042 37.7388 30.8036 38.3812 30.8036 39.2785L30.8036 62.8799C30.8036 63.7771 30.8042 64.419 30.8414 64.9C30.8781 65.375 30.9485 65.649 31.0658 65.8331C31.2682 66.1503 31.576 66.3285 31.951 66.3458C32.1687 66.3557 32.4403 66.2798 32.8689 66.0742C33.3028 65.866 33.8571 65.5456 34.6318 65.0969M52.9326 54.9891L34.6318 65.5877M52.9326 54.9891L53.9489 54.3952C54.765 53.907 55.287 53.546 55.7033 53.086L55.8143 52.9581C56.2062 52.4862 56.5368 51.9385 56.7751 51.3677L56.8713 51.1217C57.106 50.482 57.1647 49.822 57.1794 48.7819L57.1845 47.6017V24.0004C57.1845 22.2226 57.1842 21.3336 56.8713 20.8432C56.6296 20.4646 56.2622 20.2516 55.8143 20.2311C55.3795 20.2113 54.8392 20.4567 53.9489 20.9553L52.9326 21.5379L34.6318 32.1365C33.097 33.0254 32.3293 33.4697 31.7495 34.1679C31.3017 34.7072 30.9342 35.3457 30.6925 36.0043C30.3796 36.8571 30.3799 37.7462 30.3799 39.5239L30.3799 63.1252C30.3799 64.903 30.3797 65.7923 30.6925 66.2828L30.7893 66.417C31.0276 66.7117 31.3577 66.8769 31.7495 66.8949L31.8606 66.8942C32.4283 66.8641 33.1927 66.4212 34.6318 65.5877M34.6318 65.5877V65.0969M61.2984 63.8335V64.3243M61.2984 63.8335L42.9978 74.4321M61.2984 63.8335C62.0731 63.3848 62.6275 63.0631 63.0614 62.7687C63.4898 62.478 63.7616 62.2392 63.9792 61.9772C64.3542 61.5255 64.662 60.9909 64.8644 60.4392C64.9818 60.1192 65.0521 59.7637 65.0888 59.2461C65.126 58.7221 65.1261 58.0799 65.1261 57.1826V31.7958C65.1261 30.8984 65.126 30.2564 65.0888 29.7754C65.0521 29.3003 64.9818 29.0263 64.8644 28.8422C64.662 28.525 64.3543 28.3468 63.9792 28.3296C63.7616 28.3196 63.4898 28.3956 63.0614 28.6012C62.6275 28.8093 62.0731 29.1297 61.2984 29.5784L42.9978 40.1769C42.223 40.6256 41.6687 40.9474 41.2348 41.2417C40.8063 41.5324 40.5346 41.7712 40.317 42.0332C39.9419 42.4849 39.6342 43.0195 39.4318 43.5712C39.3143 43.8913 39.244 44.2467 39.2073 44.7643C39.1701 45.2884 39.1695 45.9308 39.1695 46.8282V72.2149C39.1695 73.1123 39.1701 73.7541 39.2073 74.2351C39.244 74.7101 39.3144 74.9841 39.4318 75.1682C39.6342 75.4854 39.9419 75.6636 40.317 75.6808C40.5346 75.6908 40.8063 75.6149 41.2348 75.4093C41.6687 75.2011 42.223 74.8807 42.9978 74.4321M61.2984 64.3243L42.9978 74.9228M61.2984 64.3243L62.3147 63.7304C63.1308 63.2421 63.6528 62.8812 64.0691 62.4212L64.1802 62.2932C64.5721 61.8212 64.9026 61.2732 65.1409 60.7022L65.2371 60.4568C65.4718 59.8172 65.5305 59.157 65.5452 58.117L65.5503 56.9369V31.5501C65.5503 29.7723 65.55 28.8833 65.2371 28.3929C64.9955 28.0142 64.628 27.8013 64.1802 27.7808C63.7454 27.761 63.205 28.0064 62.3147 28.505L61.2984 29.0876L42.9978 39.6862C41.4629 40.575 40.6952 41.0194 40.1154 41.7176C39.6676 42.2568 39.3001 42.8953 39.0584 43.554C38.7456 44.4068 38.7458 45.2958 38.7458 47.0736L38.7458 72.4603C38.7458 74.2381 38.7456 75.1274 39.0584 75.6178L39.1552 75.7515C39.3935 76.0463 39.7235 76.212 40.1154 76.23L40.2265 76.2293C40.7942 76.1992 41.5587 75.7562 42.9978 74.9228M42.9978 74.9228V74.4321M66.0279 61.2226V61.7134M66.0279 61.2226L55.3293 67.4186M66.0279 61.2226C66.8026 60.774 67.357 60.4522 67.7909 60.1578C68.2193 59.8672 68.4911 59.6283 68.7087 59.3663C69.0837 58.9147 69.3916 58.3799 69.5939 57.8283C69.7113 57.5083 69.7817 57.1528 69.8184 56.6352C69.8556 56.1112 69.8556 55.469 69.8556 54.5717V39.3453C69.8556 38.4479 69.8556 37.8059 69.8184 37.3248C69.7816 36.8498 69.7113 36.5758 69.5939 36.3917C69.3916 36.0745 69.0838 35.8963 68.7087 35.8791C68.4911 35.8691 68.2193 35.9451 67.7909 36.1506C67.357 36.3588 66.8026 36.6792 66.0279 37.1279L55.3293 43.3238C54.5545 43.7725 54.0002 44.0942 53.5663 44.3886C53.1378 44.6793 52.8661 44.9181 52.6485 45.1801C52.2734 45.6318 51.9657 46.1664 51.7633 46.7181C51.6459 47.0382 51.5756 47.3935 51.5389 47.9112C51.5017 48.4353 51.5011 49.0777 51.5011 49.9751V65.2015C51.5011 66.0988 51.5017 66.7406 51.5389 67.2216C51.5756 67.6966 51.6459 67.9707 51.7633 68.1547C51.9657 68.472 52.2734 68.6501 52.6485 68.6674C52.8661 68.6773 53.1378 68.6014 53.5663 68.3958C54.0002 68.1876 54.5545 67.8673 55.3293 67.4186M66.0279 61.7134L55.3293 67.9093M66.0279 61.7134L67.0442 61.1195C67.8604 60.6313 68.3824 60.2703 68.7986 59.8103L68.9097 59.6823C69.3017 59.2103 69.6321 58.6623 69.8705 58.0913L69.9667 57.8459C70.2013 57.2063 70.2601 56.5462 70.2747 55.5062L70.2799 54.326V39.0996C70.2799 37.3218 70.2795 36.4328 69.9667 35.9424C69.725 35.5637 69.3575 35.3508 68.9097 35.3303C68.4749 35.3104 67.9345 35.5559 67.0442 36.0545L66.0279 36.6371L55.3293 42.8331C53.7945 43.7219 53.0268 44.1662 52.447 44.8644C51.9991 45.4037 51.6316 46.0422 51.39 46.7008C51.0771 47.5536 51.0774 48.4427 51.0774 50.2204V65.4469C51.0774 67.2246 51.0771 68.1139 51.39 68.6044L51.4867 68.738C51.7251 69.0328 52.0551 69.1985 52.447 69.2165L52.558 69.2158C53.1258 69.1858 53.8902 68.7428 55.3293 67.9093M55.3293 67.9093V67.4186" stroke="url(#paint3_linear_99_666)" stroke-width="0.35" stroke-miterlimit="1"/>
</g>
<defs>
<filter id="filter0_d_99_666" x="-0.000116348" y="-1.87159e-05" width="100.66" height="100.66" filterUnits="userSpaceOnUse" color-interpolation-filters="sRGB">
<feFlood flood-opacity="0" result="BackgroundImageFix"/>
<feColorMatrix in="SourceAlpha" type="matrix" values="0 0 0 0 0 0 0 0 0 0 0 0 0 0 0 0 0 0 127 0" result="hardAlpha"/>
<feOffset dy="1.4"/>
<feGaussianBlur stdDeviation="7.315"/>
<feComposite in2="hardAlpha" operator="out"/>
<feColorMatrix type="matrix" values="0 0 0 0 0.77601 0 0 0 0 0.77601 0 0 0 0 0.77601 0 0 0 0.25 0"/>
<feBlend mode="normal" in2="BackgroundImageFix" result="effect1_dropShadow_99_666"/>
<feBlend mode="normal" in="SourceGraphic" in2="effect1_dropShadow_99_666" result="shape"/>
</filter>
<linearGradient id="paint0_linear_99_666" x1="28.3849" y1="14.63" x2="81.526" y2="67.2175" gradientUnits="userSpaceOnUse">
<stop stop-color="#FF6E00"/>
<stop offset="1" stop-color="#3388FF"/>
</linearGradient>
<linearGradient id="paint1_linear_99_666" x1="28.3849" y1="14.63" x2="81.526" y2="67.2175" gradientUnits="userSpaceOnUse">
<stop stop-color="#FF6E00"/>
<stop offset="1" stop-color="#3388FF"/>
</linearGradient>
<linearGradient id="paint2_linear_99_666" x1="28.3849" y1="14.63" x2="81.526" y2="67.2175" gradientUnits="userSpaceOnUse">
<stop stop-color="#FF6E00"/>
<stop offset="1" stop-color="#3388FF"/>
</linearGradient>
<linearGradient id="paint3_linear_99_666" x1="72.196" y1="17.5668" x2="32.8601" y2="80.709" gradientUnits="userSpaceOnUse">
<stop stop-color="#FF6E00"/>
<stop offset="0.485577" stop-color="#FFC5E0"/>
<stop offset="1" stop-color="#3388FF"/>
</linearGradient>
</defs>
</svg>
