<svg width="13" height="13" viewBox="0 0 13 13" fill="none" xmlns="http://www.w3.org/2000/svg">
<path d="M10.969 2.43749V4.46874C10.969 4.57649 10.9262 4.67982 10.85 4.75601C10.7738 4.83219 10.6705 4.87499 10.5627 4.87499C10.455 4.87499 10.3517 4.83219 10.2755 4.75601C10.1993 4.67982 10.1565 4.57649 10.1565 4.46874V3.41808L7.93632 5.63671C7.8586 5.70327 7.75864 5.73804 7.65639 5.7341C7.55415 5.73015 7.45716 5.68776 7.38481 5.61541C7.31246 5.54306 7.27007 5.44607 7.26612 5.34383C7.26217 5.24159 7.29695 5.14162 7.36351 5.0639L9.58214 2.84374H8.53148C8.42373 2.84374 8.3204 2.80094 8.24421 2.72476C8.16803 2.64857 8.12523 2.54524 8.12523 2.43749C8.12523 2.32975 8.16803 2.22642 8.24421 2.15023C8.3204 2.07405 8.42373 2.03124 8.53148 2.03124H10.5627C10.6705 2.03124 10.7738 2.07405 10.85 2.15023C10.9262 2.22642 10.969 2.32975 10.969 2.43749ZM10.5627 8.12499C10.455 8.12499 10.3517 8.16779 10.2755 8.24398C10.1993 8.32017 10.1565 8.4235 10.1565 8.53124V9.58191L2.72515 2.15007C2.64892 2.07384 2.54553 2.03102 2.43773 2.03102C2.32992 2.03102 2.22653 2.07384 2.1503 2.15007C2.07407 2.2263 2.03125 2.32969 2.03125 2.43749C2.03125 2.5453 2.07407 2.64869 2.1503 2.72492L9.58214 10.1562H8.53148C8.42373 10.1562 8.3204 10.199 8.24421 10.2752C8.16803 10.3514 8.12523 10.4547 8.12523 10.5625C8.12523 10.6702 8.16803 10.7736 8.24421 10.8498C8.3204 10.9259 8.42373 10.9687 8.53148 10.9687H10.5627C10.6705 10.9687 10.7738 10.9259 10.85 10.8498C10.9262 10.7736 10.969 10.6702 10.969 10.5625V8.53124C10.969 8.4235 10.9262 8.32017 10.85 8.24398C10.7738 8.16779 10.6705 8.12499 10.5627 8.12499ZM5.06413 7.36328L2.1503 10.2751C2.07407 10.3513 2.03125 10.4547 2.03125 10.5625C2.03125 10.6703 2.07407 10.7737 2.1503 10.8499C2.22653 10.9261 2.32992 10.969 2.43773 10.969C2.54553 10.969 2.64892 10.9261 2.72515 10.8499L5.63694 7.93609C5.7035 7.85837 5.73828 7.7584 5.73433 7.65616C5.73038 7.55392 5.68799 7.45693 5.61564 7.38458C5.54329 7.31223 5.4463 7.26984 5.34406 7.26589C5.24182 7.26194 5.14185 7.29672 5.06413 7.36328Z" fill="black"/>
</svg>
