<svg width="16" height="16" viewBox="0 0 16 16" fill="none" xmlns="http://www.w3.org/2000/svg">
<path d="M13.5003 2.99999V5.49999C13.5003 5.6326 13.4476 5.75978 13.3538 5.85355C13.2601 5.94731 13.1329 5.99999 13.0003 5.99999C12.8677 5.99999 12.7405 5.94731 12.6467 5.85355C12.553 5.75978 12.5003 5.6326 12.5003 5.49999V4.20687L9.76778 6.93749C9.67213 7.01941 9.54909 7.06221 9.42325 7.05735C9.29741 7.05249 9.17804 7.00032 9.089 6.91127C8.99995 6.82223 8.94778 6.70286 8.94292 6.57702C8.93806 6.45118 8.98086 6.32814 9.06278 6.23249L11.7934 3.49999H10.5003C10.3677 3.49999 10.2405 3.44731 10.1467 3.35355C10.053 3.25978 10.0003 3.1326 10.0003 2.99999C10.0003 2.86738 10.053 2.74021 10.1467 2.64644C10.2405 2.55267 10.3677 2.49999 10.5003 2.49999H13.0003C13.1329 2.49999 13.2601 2.55267 13.3538 2.64644C13.4476 2.74021 13.5003 2.86738 13.5003 2.99999ZM13.0003 9.99999C12.8677 9.99999 12.7405 10.0527 12.6467 10.1464C12.553 10.2402 12.5003 10.3674 12.5003 10.5V11.7931L3.35403 2.64624C3.26021 2.55242 3.13296 2.49972 3.00028 2.49972C2.8676 2.49972 2.74035 2.55242 2.64653 2.64624C2.55271 2.74006 2.5 2.86731 2.5 2.99999C2.5 3.13268 2.55271 3.25992 2.64653 3.35374L11.7934 12.5H10.5003C10.3677 12.5 10.2405 12.5527 10.1467 12.6464C10.053 12.7402 10.0003 12.8674 10.0003 13C10.0003 13.1326 10.053 13.2598 10.1467 13.3535C10.2405 13.4473 10.3677 13.5 10.5003 13.5H13.0003C13.1329 13.5 13.2601 13.4473 13.3538 13.3535C13.4476 13.2598 13.5003 13.1326 13.5003 13V10.5C13.5003 10.3674 13.4476 10.2402 13.3538 10.1464C13.2601 10.0527 13.1329 9.99999 13.0003 9.99999ZM6.23278 9.06249L2.64653 12.6462C2.55271 12.7401 2.5 12.8673 2.5 13C2.5 13.1327 2.55271 13.2599 2.64653 13.3537C2.74035 13.4476 2.8676 13.5003 3.00028 13.5003C3.13296 13.5003 3.26021 13.4476 3.35403 13.3537L6.93778 9.76749C7.01969 9.67184 7.06249 9.5488 7.05763 9.42297C7.05277 9.29713 7.00061 9.17776 6.91156 9.08871C6.82251 8.99966 6.70314 8.9475 6.5773 8.94264C6.45147 8.93778 6.32843 8.98058 6.23278 9.06249Z" fill="#525252"/>
</svg>
