<svg width="16" height="16" viewBox="0 0 16 16" fill="none" xmlns="http://www.w3.org/2000/svg">
<path d="M12.0184 3.5H4.36836C4.11475 3.5 3.87152 3.60075 3.69219 3.78008C3.51286 3.95941 3.41211 4.20264 3.41211 4.45625V12.1063C3.41211 12.3599 3.51286 12.6031 3.69219 12.7824C3.87152 12.9618 4.11475 13.0625 4.36836 13.0625H12.0184C12.272 13.0625 12.5152 12.9618 12.6945 12.7824C12.8739 12.6031 12.9746 12.3599 12.9746 12.1063V4.45625C12.9746 4.20264 12.8739 3.95941 12.6945 3.78008C12.5152 3.60075 12.272 3.5 12.0184 3.5ZM12.0184 12.1063H4.36836V4.45625H12.0184V12.1063ZM14.8871 3.97813V12.5844C14.8871 12.7112 14.8367 12.8328 14.7471 12.9225C14.6574 13.0121 14.5358 13.0625 14.409 13.0625C14.2822 13.0625 14.1606 13.0121 14.0709 12.9225C13.9812 12.8328 13.9309 12.7112 13.9309 12.5844V3.97813C13.9309 3.85132 13.9812 3.72971 14.0709 3.64004C14.1606 3.55037 14.2822 3.5 14.409 3.5C14.5358 3.5 14.6574 3.55037 14.7471 3.64004C14.8367 3.72971 14.8871 3.85132 14.8871 3.97813ZM2.45586 3.97813V12.5844C2.45586 12.7112 2.40549 12.8328 2.31582 12.9225C2.22615 13.0121 2.10454 13.0625 1.97773 13.0625C1.85093 13.0625 1.72931 13.0121 1.63965 12.9225C1.54998 12.8328 1.49961 12.7112 1.49961 12.5844V3.97813C1.49961 3.85132 1.54998 3.72971 1.63965 3.64004C1.72931 3.55037 1.85093 3.5 1.97773 3.5C2.10454 3.5 2.22615 3.55037 2.31582 3.64004C2.40549 3.72971 2.45586 3.85132 2.45586 3.97813Z" fill="black"/>
</svg>
